<?xml version="1.0" standalone="no"?>
<!DOCTYPE svg PUBLIC "-//W3C//DTD SVG 20010904//EN"
 "http://www.w3.org/TR/2001/REC-SVG-20010904/DTD/svg10.dtd">
<svg version="1.0" xmlns="http://www.w3.org/2000/svg"
 width="92.000000pt" height="92.000000pt" viewBox="0 0 92.000000 92.000000"
 preserveAspectRatio="xMidYMid meet">
<metadata>
Created by potrace 1.16, written by Peter Selinger 2001-2019
</metadata>
<g transform="translate(0.000000,92.000000) scale(0.100000,-0.100000)"
fill="#000000" stroke="none">
<path d="M250 443 c2 -36 51 -207 61 -214 8 -5 78 -9 156 -9 125 0 143 2 151
18 8 14 52 192 52 208 0 2 -47 4 -105 4 -105 0 -105 0 -105 -25 0 -20 7 -26
40 -36 l41 -12 -3 -51 -3 -51 -47 -3 c-40 -3 -54 2 -83 25 -41 33 -44 43 -10
43 24 0 25 3 25 55 l0 55 -85 0 c-47 0 -85 -3 -85 -7z"/>
</g>
</svg>
