<?xml version="1.0" standalone="no"?>
<!DOCTYPE svg PUBLIC "-//W3C//DTD SVG 20010904//EN"
 "http://www.w3.org/TR/2001/REC-SVG-20010904/DTD/svg10.dtd">
<svg version="1.0" xmlns="http://www.w3.org/2000/svg"
 width="93.000000pt" height="92.000000pt" viewBox="0 0 93.000000 92.000000"
 preserveAspectRatio="xMidYMid meet">
<metadata>
Created by potrace 1.16, written by Peter Selinger 2001-2019
</metadata>
<g transform="translate(0.000000,92.000000) scale(0.100000,-0.100000)"
fill="#000000" stroke="none">
<path d="M254 519 c8 -77 59 -186 118 -252 l43 -49 0 46 c1 98 96 162 197 132
26 -8 27 -6 47 59 12 37 21 80 21 96 l0 29 -216 0 -217 0 7 -61z"/>
<path d="M445 276 c-13 -67 39 -126 111 -126 74 0 130 72 109 139 -6 20 -14
21 -110 21 l-104 0 -6 -34z"/>
</g>
</svg>
