<?xml version="1.0" standalone="no"?>
<!DOCTYPE svg PUBLIC "-//W3C//DTD SVG 20010904//EN"
 "http://www.w3.org/TR/2001/REC-SVG-20010904/DTD/svg10.dtd">
<svg version="1.0" xmlns="http://www.w3.org/2000/svg"
 width="92.000000pt" height="92.000000pt" viewBox="0 0 92.000000 92.000000"
 preserveAspectRatio="xMidYMid meet">
<metadata>
Created by potrace 1.16, written by Peter Selinger 2001-2019
</metadata>
<g transform="translate(0.000000,92.000000) scale(0.100000,-0.100000)"
fill="#000000" stroke="none">
<path d="M226 602 c-2 -4 -1 -14 3 -21 5 -7 6 -21 4 -32 -7 -24 96 -134 111
-119 7 7 6 14 -2 22 -19 19 -14 33 6 15 10 -10 22 -17 25 -17 12 0 8 35 -5 48
-9 9 -9 12 0 12 7 0 12 15 12 36 0 23 6 42 18 50 14 11 4 13 -75 14 -50 0 -94
-4 -97 -8z"/>
<path d="M500 603 c0 -5 10 -13 23 -18 13 -6 23 -21 25 -36 4 -38 37 -66 57
-49 8 7 15 8 15 2 0 -5 -7 -15 -15 -22 -8 -7 -15 -22 -15 -34 0 -17 8 -13 49
29 40 41 50 58 53 90 l3 40 -98 3 c-53 1 -97 -1 -97 -5z"/>
<path d="M396 425 c5 -46 3 -65 -5 -65 -6 0 -11 17 -11 41 0 36 -2 40 -15 29
-23 -19 -20 -121 5 -153 11 -14 20 -30 20 -36 0 -7 27 -11 73 -11 60 0 74 3
82 18 37 69 38 70 30 156 -7 90 -25 119 -25 42 0 -25 -5 -48 -10 -51 -6 -4
-10 13 -10 44 0 39 -4 51 -15 51 -11 0 -15 -12 -15 -45 0 -25 -4 -45 -10 -45
-5 0 -10 20 -10 45 0 33 -4 45 -15 45 -11 0 -15 -11 -15 -40 0 -22 -4 -40 -10
-40 -5 0 -10 18 -10 40 0 34 -3 40 -20 40 -19 0 -20 -4 -14 -65z"/>
</g>
</svg>
