<?xml version="1.0" standalone="no"?>
<!DOCTYPE svg PUBLIC "-//W3C//DTD SVG 20010904//EN"
 "http://www.w3.org/TR/2001/REC-SVG-20010904/DTD/svg10.dtd">
<svg version="1.0" xmlns="http://www.w3.org/2000/svg"
 width="93.000000pt" height="92.000000pt" viewBox="0 0 93.000000 92.000000"
 preserveAspectRatio="xMidYMid meet">
<metadata>
Created by potrace 1.16, written by Peter Selinger 2001-2019
</metadata>
<g transform="translate(0.000000,92.000000) scale(0.100000,-0.100000)"
fill="#000000" stroke="none">
<path d="M150 572 c0 -33 35 -55 73 -48 57 11 67 1 67 -64 0 -67 -7 -73 -75
-63 -41 5 -45 4 -56 -21 -31 -67 53 -110 89 -46 27 47 49 48 94 2 35 -34 39
-42 29 -61 -7 -11 -18 -21 -26 -21 -8 0 -22 -11 -31 -25 -34 -52 31 -111 77
-69 17 15 19 26 14 60 -9 63 -3 69 62 67 48 -1 58 -5 65 -22 4 -12 3 -32 -3
-45 -13 -29 1 -62 31 -71 29 -9 70 20 70 49 0 24 -28 56 -49 56 -6 0 -15 10
-20 22 -7 19 -1 30 31 61 44 43 69 43 90 -1 9 -18 22 -28 41 -30 36 -4 57 13
57 48 0 37 -22 54 -64 47 -65 -11 -76 -2 -76 63 0 51 3 58 25 68 15 7 27 8 30
2 9 -14 59 -12 73 2 7 7 12 22 12 35 0 21 -4 23 -50 23 -35 0 -50 -4 -50 -13
0 -8 -12 -19 -26 -26 -23 -10 -28 -9 -46 14 -11 14 -29 25 -41 25 -20 0 -20
-1 5 -27 58 -63 55 -148 -6 -209 -89 -89 -246 -20 -246 109 0 42 12 70 43 105
l20 22 -21 0 c-12 0 -29 -11 -37 -24 -14 -22 -20 -23 -46 -14 -16 5 -29 16
-29 24 0 10 -14 14 -50 14 -42 0 -50 -3 -50 -18z"/>
<path d="M364 475 c-10 -39 25 -98 66 -111 71 -23 144 26 138 95 -3 34 -5 36
-40 39 l-38 3 0 -40 c0 -37 -2 -41 -25 -41 -22 0 -25 4 -25 40 0 39 -1 40 -35
40 -28 0 -36 -4 -41 -25z"/>
</g>
</svg>
