<?xml version="1.0" standalone="no"?>
<!DOCTYPE svg PUBLIC "-//W3C//DTD SVG 20010904//EN"
 "http://www.w3.org/TR/2001/REC-SVG-20010904/DTD/svg10.dtd">
<svg version="1.0" xmlns="http://www.w3.org/2000/svg"
 width="93.000000pt" height="92.000000pt" viewBox="0 0 93.000000 92.000000"
 preserveAspectRatio="xMidYMid meet">
<metadata>
Created by potrace 1.16, written by Peter Selinger 2001-2019
</metadata>
<g transform="translate(0.000000,92.000000) scale(0.100000,-0.100000)"
fill="#000000" stroke="none">
<path d="M230 524 c0 -32 5 -56 14 -63 9 -8 78 -11 227 -9 l214 3 3 61 3 61
-231 0 -230 -1 0 -52z"/>
<path d="M250 296 c0 -94 4 -96 213 -96 97 0 177 4 188 10 16 9 19 22 19 80
l0 70 -69 0 c-53 0 -79 -5 -105 -21 l-36 -21 -29 21 c-23 17 -44 21 -105 21
l-76 0 0 -64z"/>
</g>
</svg>
